<?xml version="1.0" encoding="UTF-8" standalone="no"?>
<svg
   xmlns:dc="http://purl.org/dc/elements/1.1/"
   xmlns:cc="http://creativecommons.org/ns#"
   xmlns:rdf="http://www.w3.org/1999/02/22-rdf-syntax-ns#"
   xmlns:svg="http://www.w3.org/2000/svg"
   xmlns="http://www.w3.org/2000/svg"
   xmlns:xlink="http://www.w3.org/1999/xlink"
   xmlns:sodipodi="http://sodipodi.sourceforge.net/DTD/sodipodi-0.dtd"
   xmlns:inkscape="http://www.inkscape.org/namespaces/inkscape"
   width="1.77in"
   height="2.05in"
   viewBox="0 0 44.958 52.07"
   version="1.1"
   id="svg8"
   inkscape:version="0.92.4 (5da689c313, 2019-01-14)"
   sodipodi:docname="sticker-hexagon-trans-drukbedrijf.svg"
   inkscape:export-filename="/home/sander/workspace/opentaal-artwork/svg/sticker-hexagon2.png"
   inkscape:export-xdpi="256"
   inkscape:export-ydpi="256">
  <defs
     id="defs2">
    <linearGradient
       gradientTransform="matrix(-1,0,0,1,127.98764,0)"
       y2="67.103897"
       y1="2.3333001"
       x2="93.700401"
       x1="93.700401"
       gradientUnits="userSpaceOnUse"
       id="SVGID_5_">
      <stop
         style="stop-color:#795548;stop-opacity:1"
         id="stop1237"
         offset="0" />
      <stop
         style="stop-color:#3e2723;stop-opacity:1"
         id="stop1239"
         offset="1" />
    </linearGradient>
    <linearGradient
       id="SVGID_1_-2"
       gradientUnits="userSpaceOnUse"
       x1="19.655199"
       x2="19.655199"
       y1="93"
       y2="126.4398"
       gradientTransform="matrix(-1,0,0,1,127.98764,0)">
      <stop
         offset="0"
         style="stop-color:#E0E0E0"
         id="stop2-9" />
      <stop
         offset="0.9954"
         style="stop-color:#9E9E9E"
         id="stop4-1" />
    </linearGradient>
    <linearGradient
       id="SVGID_2_"
       gradientUnits="userSpaceOnUse"
       x1="91.674698"
       x2="91.674698"
       y1="-7.6666999"
       y2="35.475498"
       gradientTransform="matrix(-1,0,0,1,127.98764,0)"
       spreadMethod="pad">
      <stop
         offset="0"
         id="stop11"
         style="stop-color:#fb8c00;stop-opacity:1" />
      <stop
         offset="0.97649997"
         id="stop13"
         style="stop-color:#ef6c00;stop-opacity:1" />
      <stop
         offset="1"
         id="stop15"
         style="stop-color:#ff6d00;stop-opacity:1" />
    </linearGradient>
    <linearGradient
       id="SVGID_6_"
       gradientUnits="userSpaceOnUse"
       x1="113.3457"
       x2="113.3457"
       y1="2.5"
       y2="25.2547"
       gradientTransform="matrix(-1,0,0,1,127.98764,0)">
      <stop
         offset="0"
         id="stop53"
         style="stop-color:#ff9800;stop-opacity:1" />
      <stop
         offset="1"
         id="stop55"
         style="stop-color:#f57c00;stop-opacity:1" />
    </linearGradient>
    <linearGradient
       id="SVGID_3_"
       gradientUnits="userSpaceOnUse"
       x1="27.013201"
       x2="27.013201"
       y1="89.666702"
       y2="108.6667"
       gradientTransform="matrix(-1,0,0,1,127.98764,0)">
      <stop
         offset="0"
         id="stop28"
         style="stop-color:#ff9800;stop-opacity:1" />
      <stop
         offset="1"
         id="stop30"
         style="stop-color:#f57c00;stop-opacity:1" />
    </linearGradient>
    <linearGradient
       id="SVGID_4_"
       gradientUnits="userSpaceOnUse"
       x1="51.882999"
       x2="51.882999"
       y1="40"
       y2="108.6588"
       gradientTransform="matrix(-1,0,0,1,127.98764,0)">
      <stop
         offset="0"
         id="stop35"
         style="stop-color:#4e342e;stop-opacity:1" />
      <stop
         offset="1"
         id="stop37"
         style="stop-color:#3e2723;stop-opacity:1" />
    </linearGradient>
    <linearGradient
       id="SVGID_5_-3"
       gradientUnits="userSpaceOnUse"
       x1="93.700401"
       x2="93.700401"
       y1="2.3333001"
       y2="67.103897"
       gradientTransform="matrix(-1,0,0,1,127.98764,0)">
      <stop
         offset="0"
         id="stop46"
         style="stop-color:#5d4037;stop-opacity:1" />
      <stop
         offset="1"
         id="stop48"
         style="stop-color:#3e2723;stop-opacity:1" />
    </linearGradient>
    <clipPath
       id="SVGID_8_">
      <use
         id="use67"
         xlink:href="#SVGID_7_"
         style="overflow:visible"
         x="0"
         y="0"
         width="100%"
         height="100%" />
    </clipPath>
    <path
       d="m 123.73,15.91 -0.14,-0.14 c 1.22,-2.54 -0.41,-5.49 -3.15,-8.22 -2.74,-2.73 -5.68,-4.37 -8.22,-3.15 l -0.14,-0.14 c 0,0 -23.31,16.29 -48.16,42.3 -0.72,0.75 -0.7,1.94 0.03,2.68 l 7.41,7.41 7.41,7.41 c 0.73,0.73 1.93,0.75 2.68,0.03 26,-24.86 42.28,-48.18 42.28,-48.18 z"
       id="SVGID_7_"
       inkscape:connector-curvature="0" />
    <linearGradient
       inkscape:collect="always"
       xlink:href="#background"
       id="linearGradient916"
       gradientUnits="userSpaceOnUse"
       x1="135.53159"
       y1="48.082447"
       x2="135.53159"
       y2="242.18916"
       gradientTransform="translate(0,5.2916667)" />
    <linearGradient
       inkscape:collect="always"
       id="background">
      <stop
         style="stop-color:#9bcdff;stop-opacity:1"
         offset="0"
         id="stop908" />
      <stop
         style="stop-color:#f4faff;stop-opacity:1"
         offset="1"
         id="stop910" />
    </linearGradient>
  </defs>
  <sodipodi:namedview
     id="base"
     pagecolor="#ffffff"
     bordercolor="#666666"
     borderopacity="1.0"
     inkscape:pageopacity="0.0"
     inkscape:pageshadow="2"
     inkscape:zoom="4.4563009"
     inkscape:cx="84.959999"
     inkscape:cy="98.399998"
     inkscape:document-units="mm"
     inkscape:current-layer="layer1"
     showgrid="false"
     units="in"
     showguides="true"
     inkscape:guide-bbox="true"
     inkscape:window-width="1920"
     inkscape:window-height="1024"
     inkscape:window-x="0"
     inkscape:window-y="0"
     inkscape:window-maximized="1" />
  <metadata
     id="metadata5">
    <rdf:RDF>
      <cc:Work
         rdf:about="">
        <dc:format>image/svg+xml</dc:format>
        <dc:type
           rdf:resource="http://purl.org/dc/dcmitype/StillImage" />
        <dc:title />
        <dc:creator>
          <cc:Agent>
            <dc:title>Sander van Geloven</dc:title>
          </cc:Agent>
        </dc:creator>
        <dc:publisher>
          <cc:Agent>
            <dc:title>Nuspell</dc:title>
          </cc:Agent>
        </dc:publisher>
      </cc:Work>
    </rdf:RDF>
  </metadata>
  <g
     inkscape:label="Layer 1"
     inkscape:groupmode="layer"
     id="layer1"
     transform="translate(0,-244.92998)">
    <path
       style="fill:#f200ff;fill-opacity:0.50196081;stroke:none;stroke-width:38.17322922;stroke-miterlimit:4;stroke-dasharray:none;stroke-dashoffset:0;stroke-opacity:1"
       d="M 84.960938 1.4394531 L 1.0898438 49.863281 L 1.0898438 146.9375 L 84.960938 195.35938 L 168.83008 146.9375 L 168.83008 49.863281 L 84.960938 1.4394531 z M 84.960938 2.4003906 L 168 50.34375 L 168 146.45703 L 84.960938 194.40039 L 1.9199219 146.45703 L 1.9199219 50.34375 L 84.960938 2.4003906 z "
       transform="matrix(0.26458333,0,0,0.26458333,0,244.92998)"
       id="rect1193-5-5" />
    <g
       aria-label="Taal is van ons
allemaal"
       style="font-style:normal;font-weight:normal;font-size:3.88055563px;line-height:1.10000002;font-family:sans-serif;letter-spacing:0px;word-spacing:0px;fill:#000005;fill-opacity:1;stroke:none;stroke-width:0.26458332"
       id="text1157-3-3">
      <path
         d="m 11.528897,282.97285 0.08148,-0.46423 h 1.858801 l -0.08148,0.46423 h -0.663181 l -0.397909,2.29461 h -0.543808 l 0.397908,-2.29461 z"
         style="font-style:italic;font-variant:normal;font-weight:bold;font-stretch:normal;font-size:3.88055563px;font-family:'Roboto Condensed';-inkscape-font-specification:'Roboto Condensed, ';text-align:center;text-anchor:middle;fill:#000005;fill-opacity:1;stroke-width:0.26458332"
         id="path851" />
      <path
         d="m 13.923928,285.26746 q -0.01516,-0.0701 -0.01516,-0.15917 -0.178111,0.19896 -0.397908,0.19896 -0.248219,-0.002 -0.384645,-0.1819 -0.136426,-0.18191 -0.125057,-0.41686 0.01895,-0.36759 0.278536,-0.53055 0.261483,-0.16484 0.598757,-0.16484 H 14.0433 l 0.02463,-0.16675 q 0.0095,-0.0815 -0.0057,-0.16484 -0.01326,-0.0834 -0.121267,-0.0853 -0.108004,-0.002 -0.157269,0.0701 -0.04927,0.072 -0.06632,0.16485 l -0.52107,0.004 q 0.01895,-0.31265 0.255798,-0.48697 0.23685,-0.17622 0.536229,-0.17053 0.305063,0.008 0.468016,0.19137 0.162953,0.1838 0.132636,0.48886 l -0.153479,0.95877 -0.02084,0.1838 q -0.01326,0.12316 0.02653,0.23116 l -0.0019,0.036 z m -0.267167,-0.38086 q 0.136425,0.004 0.255798,-0.12127 l 0.09285,-0.43391 h -0.113688 q -0.147795,0.006 -0.242535,0.10043 -0.09474,0.0947 -0.113688,0.24064 -0.0095,0.072 0.01137,0.14211 0.02084,0.0682 0.109899,0.072 z"
         style="font-style:italic;font-variant:normal;font-weight:bold;font-stretch:normal;font-size:3.88055563px;font-family:'Roboto Condensed';-inkscape-font-specification:'Roboto Condensed, ';text-align:center;text-anchor:middle;fill:#000005;fill-opacity:1;stroke-width:0.26458332"
         id="path853" />
      <path
         d="m 15.697463,285.26746 q -0.01516,-0.0701 -0.01516,-0.15917 -0.178111,0.19896 -0.397908,0.19896 -0.248219,-0.002 -0.384645,-0.1819 -0.136426,-0.18191 -0.125057,-0.41686 0.01895,-0.36759 0.278536,-0.53055 0.261483,-0.16484 0.598758,-0.16484 h 0.164847 l 0.02463,-0.16675 q 0.0095,-0.0815 -0.0057,-0.16484 -0.01326,-0.0834 -0.121267,-0.0853 -0.108004,-0.002 -0.157269,0.0701 -0.04926,0.072 -0.06632,0.16485 l -0.52107,0.004 q 0.01895,-0.31265 0.255798,-0.48697 0.23685,-0.17622 0.536229,-0.17053 0.305063,0.008 0.468016,0.19137 0.162953,0.1838 0.132637,0.48886 l -0.153479,0.95877 -0.02084,0.1838 q -0.01326,0.12316 0.02653,0.23116 l -0.0019,0.036 z m -0.267167,-0.38086 q 0.136425,0.004 0.255798,-0.12127 l 0.09284,-0.43391 h -0.113688 q -0.147794,0.006 -0.242535,0.10043 -0.09474,0.0947 -0.113688,0.24064 -0.0095,0.072 0.01137,0.14211 0.02084,0.0682 0.109899,0.072 z"
         style="font-style:italic;font-variant:normal;font-weight:bold;font-stretch:normal;font-size:3.88055563px;font-family:'Roboto Condensed';-inkscape-font-specification:'Roboto Condensed, ';text-align:center;text-anchor:middle;fill:#000005;fill-opacity:1;stroke-width:0.26458332"
         id="path855" />
      <path
         d="m 17.554369,282.35704 -0.505912,2.91042 h -0.52486 l 0.504017,-2.91042 z"
         style="font-style:italic;font-variant:normal;font-weight:bold;font-stretch:normal;font-size:3.88055563px;font-family:'Roboto Condensed';-inkscape-font-specification:'Roboto Condensed, ';text-align:center;text-anchor:middle;fill:#000005;fill-opacity:1;stroke-width:0.26458332"
         id="path857" />
      <path
         d="m 18.782201,282.69621 q 0,-0.12506 0.07958,-0.21032 0.07958,-0.0853 0.206534,-0.0872 0.121267,-0.002 0.200849,0.0777 0.08148,0.0777 0.08148,0.20085 0.0019,0.12316 -0.07769,0.20843 -0.07958,0.0853 -0.206533,0.0872 -0.121267,0.004 -0.202744,-0.0739 -0.07958,-0.0796 -0.08148,-0.20274 z m 0.456648,0.52107 -0.356223,2.05018 h -0.52486 l 0.356223,-2.05018 z"
         style="font-style:italic;font-variant:normal;font-weight:bold;font-stretch:normal;font-size:3.88055563px;font-family:'Roboto Condensed';-inkscape-font-specification:'Roboto Condensed, ';text-align:center;text-anchor:middle;fill:#000005;fill-opacity:1;stroke-width:0.26458332"
         id="path859" />
      <path
         d="m 20.267727,284.7047 q 0.01137,-0.0701 -0.03032,-0.12127 -0.03979,-0.0512 -0.250114,-0.15158 -0.208428,-0.10232 -0.348644,-0.23875 -0.13832,-0.13832 -0.125056,-0.38085 0.01516,-0.29938 0.240639,-0.46802 0.225482,-0.17053 0.511597,-0.16674 0.293695,0.006 0.47749,0.17622 0.183796,0.17053 0.180007,0.46991 h -0.522966 q 0.0038,-0.0928 -0.02274,-0.17054 -0.02653,-0.0796 -0.140215,-0.0777 -0.09095,0 -0.153479,0.0625 -0.06253,0.0606 -0.07769,0.14779 -0.01895,0.10611 0.09285,0.16674 0.111793,0.0606 0.181901,0.0928 0.229271,0.10611 0.365696,0.24443 0.138321,0.13832 0.123163,0.39033 -0.01705,0.31453 -0.259588,0.4737 -0.24064,0.15727 -0.53244,0.15158 -0.295589,-0.008 -0.486964,-0.19137 -0.18948,-0.18569 -0.185691,-0.48318 l 0.496439,0.002 q -0.0038,0.11747 0.036,0.19706 0.04169,0.0796 0.176216,0.0796 0.219797,-0.002 0.253904,-0.20464 z"
         style="font-style:italic;font-variant:normal;font-weight:bold;font-stretch:normal;font-size:3.88055563px;font-family:'Roboto Condensed';-inkscape-font-specification:'Roboto Condensed, ';text-align:center;text-anchor:middle;fill:#000005;fill-opacity:1;stroke-width:0.26458332"
         id="path861" />
      <path
         d="m 23.680266,283.21728 -0.865925,2.05018 h -0.500228 l -0.227376,-2.05018 h 0.536229 l 0.04926,1.28278 0.450963,-1.28278 z"
         style="font-style:italic;font-variant:normal;font-weight:bold;font-stretch:normal;font-size:3.88055563px;font-family:'Roboto Condensed';-inkscape-font-specification:'Roboto Condensed, ';text-align:center;text-anchor:middle;fill:#000005;fill-opacity:1;stroke-width:0.26458332"
         id="path863" />
      <path
         d="m 24.512084,285.26746 q -0.01516,-0.0701 -0.01516,-0.15917 -0.178112,0.19896 -0.397909,0.19896 -0.248219,-0.002 -0.384645,-0.1819 -0.136425,-0.18191 -0.125057,-0.41686 0.01895,-0.36759 0.278536,-0.53055 0.261483,-0.16484 0.598758,-0.16484 h 0.164848 l 0.02463,-0.16675 q 0.0095,-0.0815 -0.0057,-0.16484 -0.01326,-0.0834 -0.121267,-0.0853 -0.108004,-0.002 -0.157269,0.0701 -0.04927,0.072 -0.06632,0.16485 l -0.521071,0.004 q 0.01895,-0.31265 0.255798,-0.48697 0.236851,-0.17622 0.53623,-0.17053 0.305063,0.008 0.468016,0.19137 0.162953,0.1838 0.132636,0.48886 l -0.153479,0.95877 -0.02084,0.1838 q -0.01326,0.12316 0.02653,0.23116 l -0.0019,0.036 z m -0.267167,-0.38086 q 0.136426,0.004 0.255798,-0.12127 l 0.09285,-0.43391 h -0.113688 q -0.147795,0.006 -0.242535,0.10043 -0.09474,0.0947 -0.113688,0.24064 -0.0095,0.072 0.01137,0.14211 0.02084,0.0682 0.109898,0.072 z"
         style="font-style:italic;font-variant:normal;font-weight:bold;font-stretch:normal;font-size:3.88055563px;font-family:'Roboto Condensed';-inkscape-font-specification:'Roboto Condensed, ';text-align:center;text-anchor:middle;fill:#000005;fill-opacity:1;stroke-width:0.26458332"
         id="path865" />
      <path
         d="m 26.332989,283.62466 q -0.08148,0 -0.140215,0.0455 -0.05684,0.0455 -0.104214,0.10611 l -0.259588,1.49121 h -0.524861 l 0.356223,-2.05018 0.486964,-0.002 -0.0379,0.20464 q 0.212218,-0.24632 0.48128,-0.24253 0.212218,0.004 0.306958,0.13264 0.09663,0.12695 0.115583,0.30695 0.02084,0.18001 0.0038,0.34675 l -0.217902,1.30363 h -0.522966 l 0.217902,-1.30931 q 0.01137,-0.10611 -0.0038,-0.2198 -0.01516,-0.11369 -0.157269,-0.11369 z"
         style="font-style:italic;font-variant:normal;font-weight:bold;font-stretch:normal;font-size:3.88055563px;font-family:'Roboto Condensed';-inkscape-font-specification:'Roboto Condensed, ';text-align:center;text-anchor:middle;fill:#000005;fill-opacity:1;stroke-width:0.26458332"
         id="path867" />
      <path
         d="m 28.169053,284.31058 0.0095,-0.0872 q 0.072,-0.62718 0.454753,-0.90572 0.200849,-0.1459 0.494543,-0.13832 0.278536,0.006 0.43391,0.15348 0.155374,0.1478 0.206533,0.37517 0.05306,0.22549 0.02842,0.46802 l -0.0095,0.0872 q -0.072,0.63286 -0.460437,0.90951 -0.197059,0.14021 -0.486964,0.13263 -0.280431,-0.006 -0.435805,-0.15348 -0.153479,-0.14779 -0.206533,-0.37327 -0.05305,-0.22548 -0.02842,-0.46802 z m 0.515386,0.21222 q -0.0038,0.12885 0.036,0.23116 0.04168,0.10232 0.166742,0.10801 0.136426,0.009 0.212218,-0.0777 0.07579,-0.0891 0.113688,-0.22169 0.0379,-0.13264 0.06253,-0.39033 l 0.0095,-0.21032 q 0.0019,-0.12695 -0.03979,-0.22927 -0.03979,-0.10422 -0.164848,-0.1118 -0.14211,-0.008 -0.221692,0.0966 -0.07958,0.10421 -0.123162,0.29748 -0.04169,0.19138 -0.05116,0.50781 z"
         style="font-style:italic;font-variant:normal;font-weight:bold;font-stretch:normal;font-size:3.88055563px;font-family:'Roboto Condensed';-inkscape-font-specification:'Roboto Condensed, ';text-align:center;text-anchor:middle;fill:#000005;fill-opacity:1;stroke-width:0.26458332"
         id="path869" />
      <path
         d="m 30.948728,283.62466 q -0.08148,0 -0.140215,0.0455 -0.05684,0.0455 -0.104215,0.10611 l -0.259587,1.49121 H 29.91985 l 0.356223,-2.05018 0.486964,-0.002 -0.0379,0.20464 q 0.212218,-0.24632 0.48128,-0.24253 0.212218,0.004 0.306958,0.13264 0.09663,0.12695 0.115583,0.30695 0.02084,0.18001 0.0038,0.34675 l -0.217903,1.30363 h -0.522965 l 0.217902,-1.30931 q 0.01137,-0.10611 -0.0038,-0.2198 -0.01516,-0.11369 -0.157269,-0.11369 z"
         style="font-style:italic;font-variant:normal;font-weight:bold;font-stretch:normal;font-size:3.88055563px;font-family:'Roboto Condensed';-inkscape-font-specification:'Roboto Condensed, ';text-align:center;text-anchor:middle;fill:#000005;fill-opacity:1;stroke-width:0.26458332"
         id="path871" />
      <path
         d="m 32.773423,284.7047 q 0.01137,-0.0701 -0.03032,-0.12127 -0.03979,-0.0512 -0.250114,-0.15158 -0.208428,-0.10232 -0.348643,-0.23875 -0.138321,-0.13832 -0.125057,-0.38085 0.01516,-0.29938 0.24064,-0.46802 0.225481,-0.17053 0.511596,-0.16674 0.293695,0.006 0.477491,0.17622 0.183796,0.17053 0.180006,0.46991 h -0.522966 q 0.0038,-0.0928 -0.02274,-0.17054 -0.02653,-0.0796 -0.140216,-0.0777 -0.09095,0 -0.153479,0.0625 -0.06253,0.0606 -0.07769,0.14779 -0.01895,0.10611 0.09285,0.16674 0.111793,0.0606 0.181901,0.0928 0.229271,0.10611 0.365697,0.24443 0.13832,0.13832 0.123162,0.39033 -0.01705,0.31453 -0.259588,0.4737 -0.24064,0.15727 -0.53244,0.15158 -0.295589,-0.008 -0.486964,-0.19137 -0.18948,-0.18569 -0.18569,-0.48318 l 0.496438,0.002 q -0.0038,0.11747 0.036,0.19706 0.04169,0.0796 0.176217,0.0796 0.219797,-0.002 0.253903,-0.20464 z"
         style="font-style:italic;font-variant:normal;font-weight:bold;font-stretch:normal;font-size:3.88055563px;font-family:'Roboto Condensed';-inkscape-font-specification:'Roboto Condensed, ';text-align:center;text-anchor:middle;fill:#000005;fill-opacity:1;stroke-width:0.26458332"
         id="path873" />
      <path
         d="m 16.955612,289.67094 q -0.01516,-0.0701 -0.01516,-0.15917 -0.178111,0.19896 -0.397908,0.19896 -0.248219,-0.002 -0.384645,-0.1819 -0.136426,-0.18191 -0.125057,-0.41686 0.01895,-0.36759 0.278536,-0.53055 0.261483,-0.16484 0.598758,-0.16484 h 0.164847 l 0.02463,-0.16675 q 0.0095,-0.0815 -0.0057,-0.16484 -0.01326,-0.0834 -0.121267,-0.0853 -0.108004,-0.002 -0.157269,0.0701 -0.04926,0.072 -0.06632,0.16485 l -0.52107,0.004 q 0.01895,-0.31265 0.255798,-0.48697 0.23685,-0.17622 0.536229,-0.17053 0.305063,0.008 0.468016,0.19137 0.162953,0.1838 0.132637,0.48886 l -0.153479,0.95877 -0.02084,0.1838 q -0.01326,0.12316 0.02653,0.23116 l -0.0019,0.036 z m -0.267167,-0.38086 q 0.136425,0.004 0.255798,-0.12127 l 0.09285,-0.43391 H 16.9234 q -0.147794,0.006 -0.242535,0.10043 -0.09474,0.0947 -0.113688,0.24064 -0.0095,0.072 0.01137,0.14211 0.02084,0.0682 0.109899,0.072 z"
         style="font-style:italic;font-variant:normal;font-weight:bold;font-stretch:normal;font-size:3.88055563px;font-family:'Roboto Condensed';-inkscape-font-specification:'Roboto Condensed, ';text-align:center;text-anchor:middle;fill:#000005;fill-opacity:1;stroke-width:0.26458332"
         id="path875" />
      <path
         d="m 18.812518,286.76052 -0.505912,2.91042 h -0.52486 l 0.504017,-2.91042 z"
         style="font-style:italic;font-variant:normal;font-weight:bold;font-stretch:normal;font-size:3.88055563px;font-family:'Roboto Condensed';-inkscape-font-specification:'Roboto Condensed, ';text-align:center;text-anchor:middle;fill:#000005;fill-opacity:1;stroke-width:0.26458332"
         id="path877" />
      <path
         d="m 19.759919,286.76052 -0.505912,2.91042 h -0.52486 l 0.504017,-2.91042 z"
         style="font-style:italic;font-variant:normal;font-weight:bold;font-stretch:normal;font-size:3.88055563px;font-family:'Roboto Condensed';-inkscape-font-specification:'Roboto Condensed, ';text-align:center;text-anchor:middle;fill:#000005;fill-opacity:1;stroke-width:0.26458332"
         id="path879" />
      <path
         d="m 21.186706,289.40566 q -0.117478,0.15917 -0.312642,0.23306 -0.19327,0.072 -0.384645,0.0701 -0.413067,-0.006 -0.585494,-0.28611 -0.172427,-0.28233 -0.132637,-0.65939 l 0.01516,-0.12506 q 0.07958,-0.64992 0.450963,-0.92088 0.195165,-0.14211 0.490754,-0.13453 0.282325,0.006 0.424436,0.15538 0.144005,0.14969 0.183795,0.37706 0.03979,0.22548 0.01137,0.46423 l -0.036,0.24443 h -1.019404 q -0.01705,0.16106 0.02463,0.29748 0.04169,0.13453 0.234955,0.14022 0.238745,0.008 0.456648,-0.1819 z m -0.507807,-1.38131 q -0.180006,-0.008 -0.248219,0.13832 -0.06821,0.14401 -0.104214,0.28612 l 0.52107,0.002 0.0095,-0.053 q 0.01705,-0.11748 -0.0038,-0.24254 -0.02084,-0.12505 -0.174322,-0.13074 z"
         style="font-style:italic;font-variant:normal;font-weight:bold;font-stretch:normal;font-size:3.88055563px;font-family:'Roboto Condensed';-inkscape-font-specification:'Roboto Condensed, ';text-align:center;text-anchor:middle;fill:#000005;fill-opacity:1;stroke-width:0.26458332"
         id="path881" />
      <path
         d="m 22.482751,288.02814 q -0.07958,0 -0.136426,0.0436 -0.05495,0.0436 -0.100424,0.10232 l -0.261483,1.4969 h -0.522966 l 0.356223,-2.05018 0.48507,-0.002 -0.03411,0.19138 q 0.210323,-0.23117 0.48128,-0.22738 0.297484,0.006 0.384645,0.27475 0.227376,-0.28043 0.517281,-0.27664 0.214113,0.006 0.310748,0.13074 0.09853,0.12506 0.119372,0.30506 0.02084,0.18001 0.0038,0.34865 l -0.216008,1.30552 h -0.52486 l 0.217902,-1.30742 q 0.0095,-0.0966 0.0019,-0.21601 -0.0095,-0.11747 -0.144005,-0.11937 -0.08905,0 -0.147794,0.0587 -0.05684,0.0587 -0.09853,0.12695 l -0.01137,0.0891 -0.23685,1.36805 h -0.521071 l 0.216008,-1.30363 q 0.01137,-0.0947 0.0038,-0.2179 -0.0076,-0.12127 -0.14211,-0.12127 z"
         style="font-style:italic;font-variant:normal;font-weight:bold;font-stretch:normal;font-size:3.88055563px;font-family:'Roboto Condensed';-inkscape-font-specification:'Roboto Condensed, ';text-align:center;text-anchor:middle;fill:#000005;fill-opacity:1;stroke-width:0.26458332"
         id="path883" />
      <path
         d="m 25.216951,289.67094 q -0.01516,-0.0701 -0.01516,-0.15917 -0.178112,0.19896 -0.397909,0.19896 -0.248219,-0.002 -0.384645,-0.1819 -0.136426,-0.18191 -0.125057,-0.41686 0.01895,-0.36759 0.278536,-0.53055 0.261483,-0.16484 0.598758,-0.16484 h 0.164848 l 0.02463,-0.16675 q 0.0095,-0.0815 -0.0057,-0.16484 -0.01326,-0.0834 -0.121268,-0.0853 -0.108004,-0.002 -0.157268,0.0701 -0.04927,0.072 -0.06632,0.16485 l -0.521071,0.004 q 0.01895,-0.31265 0.255798,-0.48697 0.23685,-0.17622 0.536229,-0.17053 0.305064,0.008 0.468017,0.19137 0.162953,0.1838 0.132636,0.48886 l -0.153479,0.95877 -0.02084,0.1838 q -0.01326,0.12316 0.02653,0.23116 l -0.0019,0.036 z m -0.267167,-0.38086 q 0.136426,0.004 0.255798,-0.12127 l 0.09285,-0.43391 h -0.113689 q -0.147794,0.006 -0.242534,0.10043 -0.09474,0.0947 -0.113689,0.24064 -0.0095,0.072 0.01137,0.14211 0.02084,0.0682 0.109899,0.072 z"
         style="font-style:italic;font-variant:normal;font-weight:bold;font-stretch:normal;font-size:3.88055563px;font-family:'Roboto Condensed';-inkscape-font-specification:'Roboto Condensed, ';text-align:center;text-anchor:middle;fill:#000005;fill-opacity:1;stroke-width:0.26458332"
         id="path885" />
      <path
         d="m 26.990486,289.67094 q -0.01516,-0.0701 -0.01516,-0.15917 -0.178111,0.19896 -0.397908,0.19896 -0.248219,-0.002 -0.384645,-0.1819 -0.136426,-0.18191 -0.125057,-0.41686 0.01895,-0.36759 0.278536,-0.53055 0.261483,-0.16484 0.598758,-0.16484 h 0.164847 l 0.02463,-0.16675 q 0.0095,-0.0815 -0.0057,-0.16484 -0.01326,-0.0834 -0.121267,-0.0853 -0.108004,-0.002 -0.157269,0.0701 -0.04926,0.072 -0.06632,0.16485 l -0.52107,0.004 q 0.01895,-0.31265 0.255798,-0.48697 0.23685,-0.17622 0.536229,-0.17053 0.305063,0.008 0.468016,0.19137 0.162953,0.1838 0.132636,0.48886 l -0.153479,0.95877 -0.02084,0.1838 q -0.01326,0.12316 0.02653,0.23116 l -0.0019,0.036 z m -0.267167,-0.38086 q 0.136425,0.004 0.255798,-0.12127 l 0.09285,-0.43391 h -0.113688 q -0.147794,0.006 -0.242535,0.10043 -0.09474,0.0947 -0.113688,0.24064 -0.0095,0.072 0.01137,0.14211 0.02084,0.0682 0.109899,0.072 z"
         style="font-style:italic;font-variant:normal;font-weight:bold;font-stretch:normal;font-size:3.88055563px;font-family:'Roboto Condensed';-inkscape-font-specification:'Roboto Condensed, ';text-align:center;text-anchor:middle;fill:#000005;fill-opacity:1;stroke-width:0.26458332"
         id="path887" />
      <path
         d="m 28.847393,286.76052 -0.505912,2.91042 H 27.81662 l 0.504018,-2.91042 z"
         style="font-style:italic;font-variant:normal;font-weight:bold;font-stretch:normal;font-size:3.88055563px;font-family:'Roboto Condensed';-inkscape-font-specification:'Roboto Condensed, ';text-align:center;text-anchor:middle;fill:#000005;fill-opacity:1;stroke-width:0.26458332"
         id="path889" />
    </g>
    <g
       aria-label="Nederlandse
schrijfhulpbestanden"
       style="font-style:normal;font-weight:normal;font-size:3.88055563px;line-height:1.10000002;font-family:sans-serif;letter-spacing:0px;word-spacing:0px;fill:#000005;fill-opacity:1;stroke:none;stroke-width:0.26458332"
       id="text1157-3-3-2">
      <path
         d="m 14.885579,254.00334 v 2.75884 h -0.557072 l -0.814765,-1.80954 v 1.80954 h -0.558967 v -2.75884 h 0.558967 l 0.814765,1.81144 v -1.81144 z"
         style="font-style:normal;font-variant:normal;font-weight:bold;font-stretch:normal;font-size:3.88055563px;font-family:'Roboto Condensed';-inkscape-font-specification:'Roboto Condensed, ';text-align:center;text-anchor:middle;fill:#000005;fill-opacity:1;stroke-width:0.26458332"
         id="path892" />
      <path
         d="m 16.831541,256.49311 q -0.08148,0.1099 -0.257693,0.20843 -0.174322,0.0985 -0.4377,0.0985 -0.418751,0 -0.648022,-0.25011 -0.227376,-0.25012 -0.227376,-0.69539 v -0.16864 q 0,-0.49833 0.216007,-0.75413 0.217902,-0.2577 0.604442,-0.2577 0.38654,0 0.581704,0.24443 0.195165,0.24443 0.198955,0.73329 v 0.26338 h -1.062985 q 0.0095,0.24443 0.104215,0.34296 0.09663,0.0966 0.269062,0.0966 0.270956,0 0.447173,-0.18569 z m -0.752237,-1.37373 q -0.140215,0 -0.204638,0.10043 -0.06253,0.0985 -0.0739,0.32022 h 0.536229 v -0.0474 q -0.0038,-0.18569 -0.06063,-0.27854 -0.05684,-0.0947 -0.19706,-0.0947 z"
         style="font-style:normal;font-variant:normal;font-weight:bold;font-stretch:normal;font-size:3.88055563px;font-family:'Roboto Condensed';-inkscape-font-specification:'Roboto Condensed, ';text-align:center;text-anchor:middle;fill:#000005;fill-opacity:1;stroke-width:0.26458332"
         id="path894" />
      <path
         d="m 18.209062,256.76407 -0.02463,-0.21222 q -0.162953,0.24822 -0.426331,0.24822 -0.320221,0 -0.490753,-0.25201 -0.170533,-0.252 -0.172427,-0.7276 v -0.1459 q 0,-0.49833 0.164847,-0.74845 0.166743,-0.25201 0.500228,-0.25201 0.24064,0 0.396014,0.20464 v -1.02698 h 0.538124 v 2.91042 z m -0.577914,-0.95498 q 0,0.28233 0.05874,0.41307 0.06063,0.12884 0.223586,0.12884 0.164848,0 0.242535,-0.144 v -0.93224 q -0.07958,-0.15348 -0.24064,-0.15348 -0.159163,0 -0.221692,0.13074 -0.06253,0.13074 -0.06253,0.42254 z"
         style="font-style:normal;font-variant:normal;font-weight:bold;font-stretch:normal;font-size:3.88055563px;font-family:'Roboto Condensed';-inkscape-font-specification:'Roboto Condensed, ';text-align:center;text-anchor:middle;fill:#000005;fill-opacity:1;stroke-width:0.26458332"
         id="path896" />
      <path
         d="m 20.613567,256.49311 q -0.08148,0.1099 -0.257693,0.20843 -0.174322,0.0985 -0.4377,0.0985 -0.418751,0 -0.648022,-0.25011 -0.227376,-0.25012 -0.227376,-0.69539 v -0.16864 q 0,-0.49833 0.216007,-0.75413 0.217902,-0.2577 0.604442,-0.2577 0.38654,0 0.581704,0.24443 0.195165,0.24443 0.198955,0.73329 v 0.26338 H 19.5809 q 0.0095,0.24443 0.104214,0.34296 0.09664,0.0966 0.269062,0.0966 0.270956,0 0.447173,-0.18569 z m -0.752237,-1.37373 q -0.140215,0 -0.204638,0.10043 -0.06253,0.0985 -0.0739,0.32022 h 0.536229 v -0.0474 q -0.0038,-0.18569 -0.06063,-0.27854 -0.05684,-0.0947 -0.19706,-0.0947 z"
         style="font-style:normal;font-variant:normal;font-weight:bold;font-stretch:normal;font-size:3.88055563px;font-family:'Roboto Condensed';-inkscape-font-specification:'Roboto Condensed, ';text-align:center;text-anchor:middle;fill:#000005;fill-opacity:1;stroke-width:0.26458332"
         id="path898" />
      <path
         d="m 21.78266,255.21412 q -0.223587,0 -0.299379,0.19138 v 1.35668 H 20.947052 V 254.712 h 0.505912 l 0.01516,0.22169 q 0.128846,-0.25959 0.350538,-0.25959 0.08716,0 0.1459,0.0227 l -0.0057,0.53244 q -0.09474,-0.0152 -0.176217,-0.0152 z"
         style="font-style:normal;font-variant:normal;font-weight:bold;font-stretch:normal;font-size:3.88055563px;font-family:'Roboto Condensed';-inkscape-font-specification:'Roboto Condensed, ';text-align:center;text-anchor:middle;fill:#000005;fill-opacity:1;stroke-width:0.26458332"
         id="path900" />
      <path
         d="m 22.798274,253.85176 v 2.91042 H 22.26015 v -2.91042 z"
         style="font-style:normal;font-variant:normal;font-weight:bold;font-stretch:normal;font-size:3.88055563px;font-family:'Roboto Condensed';-inkscape-font-specification:'Roboto Condensed, ';text-align:center;text-anchor:middle;fill:#000005;fill-opacity:1;stroke-width:0.26458332"
         id="path902" />
      <path
         d="m 24.187164,256.76218 q -0.02842,-0.0644 -0.04547,-0.15917 -0.1459,0.19706 -0.390329,0.19706 -0.248219,0 -0.422541,-0.16674 -0.172427,-0.16674 -0.172427,-0.44528 0,-0.31264 0.200849,-0.49454 0.200849,-0.1838 0.613916,-0.1838 h 0.144005 v -0.16485 q 0,-0.252 -0.185691,-0.252 -0.200849,0 -0.200849,0.23495 h -0.536229 q 0,-0.26906 0.202744,-0.46044 0.204639,-0.19327 0.549493,-0.19327 0.305063,0 0.505912,0.15917 0.202744,0.15916 0.202744,0.51917 v 0.96256 q 0.0038,0.27285 0.0739,0.41496 v 0.0322 z m -0.314537,-0.38465 q 0.08716,0 0.14969,-0.036 0.06253,-0.036 0.09285,-0.0853 v -0.42633 H 23.98821 q -0.151584,0 -0.223587,0.0928 -0.072,0.0928 -0.072,0.22738 0,0.22737 0.180006,0.22737 z"
         style="font-style:normal;font-variant:normal;font-weight:bold;font-stretch:normal;font-size:3.88055563px;font-family:'Roboto Condensed';-inkscape-font-specification:'Roboto Condensed, ';text-align:center;text-anchor:middle;fill:#000005;fill-opacity:1;stroke-width:0.26458332"
         id="path904" />
      <path
         d="m 25.792062,255.12128 q -0.1459,0 -0.227376,0.15158 v 1.48932 H 25.028457 V 254.712 h 0.502122 l 0.01516,0.20085 q 0.183796,-0.23875 0.47749,-0.23875 0.24064,0 0.390329,0.17433 0.151585,0.17432 0.151585,0.61012 v 1.30363 h -0.53623 v -1.30742 q 0,-0.19516 -0.06063,-0.26337 -0.05874,-0.0701 -0.176217,-0.0701 z"
         style="font-style:normal;font-variant:normal;font-weight:bold;font-stretch:normal;font-size:3.88055563px;font-family:'Roboto Condensed';-inkscape-font-specification:'Roboto Condensed, ';text-align:center;text-anchor:middle;fill:#000005;fill-opacity:1;stroke-width:0.26458332"
         id="path906" />
      <path
         d="m 27.993822,256.76407 -0.02463,-0.21222 q -0.162953,0.24822 -0.426331,0.24822 -0.320221,0 -0.490753,-0.25201 -0.170533,-0.252 -0.172427,-0.7276 v -0.1459 q 0,-0.49833 0.164847,-0.74845 0.166743,-0.25201 0.500228,-0.25201 0.24064,0 0.396014,0.20464 v -1.02698 h 0.538124 v 2.91042 z m -0.577914,-0.95498 q 0,0.28233 0.05874,0.41307 0.06063,0.12884 0.223586,0.12884 0.164848,0 0.242535,-0.144 v -0.93224 q -0.07958,-0.15348 -0.24064,-0.15348 -0.159163,0 -0.221692,0.13074 -0.06253,0.13074 -0.06253,0.42254 z"
         style="font-style:normal;font-variant:normal;font-weight:bold;font-stretch:normal;font-size:3.88055563px;font-family:'Roboto Condensed';-inkscape-font-specification:'Roboto Condensed, ';text-align:center;text-anchor:middle;fill:#000005;fill-opacity:1;stroke-width:0.26458332"
         id="path908" />
      <path
         d="m 29.782516,256.21268 q 0,-0.0796 -0.08148,-0.14021 -0.08148,-0.0606 -0.272852,-0.14401 -0.280431,-0.1099 -0.432015,-0.25011 -0.149689,-0.14022 -0.149689,-0.38654 0,-0.2558 0.187585,-0.4358 0.187586,-0.18191 0.521071,-0.18191 0.344854,0 0.543808,0.17812 0.198954,0.17621 0.198954,0.46422 h -0.536229 q 0,-0.25201 -0.208428,-0.25201 -0.19327,0 -0.19327,0.20085 0,0.0796 0.0739,0.13453 0.07579,0.0549 0.272852,0.13643 0.306958,0.11558 0.450963,0.25769 0.1459,0.14211 0.1459,0.39602 0,0.27285 -0.202744,0.44149 -0.202744,0.16863 -0.545703,0.16863 -0.371382,0 -0.568441,-0.21032 -0.195165,-0.21222 -0.195165,-0.46233 h 0.507807 q 0.0038,0.16674 0.07769,0.22358 0.0739,0.0568 0.189481,0.0568 0.216007,0 0.216007,-0.19517 z"
         style="font-style:normal;font-variant:normal;font-weight:bold;font-stretch:normal;font-size:3.88055563px;font-family:'Roboto Condensed';-inkscape-font-specification:'Roboto Condensed, ';text-align:center;text-anchor:middle;fill:#000005;fill-opacity:1;stroke-width:0.26458332"
         id="path910" />
      <path
         d="m 32.164283,256.49311 q -0.08148,0.1099 -0.257693,0.20843 -0.174322,0.0985 -0.4377,0.0985 -0.418751,0 -0.648022,-0.25011 -0.227376,-0.25012 -0.227376,-0.69539 v -0.16864 q 0,-0.49833 0.216007,-0.75413 0.217902,-0.2577 0.604442,-0.2577 0.38654,0 0.581704,0.24443 0.195165,0.24443 0.198955,0.73329 v 0.26338 h -1.062985 q 0.0095,0.24443 0.104215,0.34296 0.09663,0.0966 0.269062,0.0966 0.270956,0 0.447173,-0.18569 z m -0.752237,-1.37373 q -0.140215,0 -0.204638,0.10043 -0.06253,0.0985 -0.0739,0.32022 h 0.536229 v -0.0474 q -0.0038,-0.18569 -0.06063,-0.27854 -0.05684,-0.0947 -0.19706,-0.0947 z"
         style="font-style:normal;font-variant:normal;font-weight:bold;font-stretch:normal;font-size:3.88055563px;font-family:'Roboto Condensed';-inkscape-font-specification:'Roboto Condensed, ';text-align:center;text-anchor:middle;fill:#000005;fill-opacity:1;stroke-width:0.26458332"
         id="path912" />
      <path
         d="m 7.1964698,260.61616 q 0,-0.0796 -0.081476,-0.14021 -0.081476,-0.0606 -0.2728516,-0.14401 -0.2804308,-0.1099 -0.432015,-0.25011 -0.1496894,-0.14022 -0.1496894,-0.38654 0,-0.2558 0.1875855,-0.43581 0.1875854,-0.1819 0.5210707,-0.1819 0.3448541,0 0.5438083,0.17812 0.1989543,0.17621 0.1989543,0.46422 H 7.175627 q 0,-0.25201 -0.2084283,-0.25201 -0.1932699,0 -0.1932699,0.20085 0,0.0796 0.073897,0.13453 0.075792,0.055 0.2728516,0.13643 0.306958,0.11558 0.450963,0.25769 0.1458998,0.14211 0.1458998,0.39602 0,0.27285 -0.2027439,0.44148 -0.2027438,0.16864 -0.5457031,0.16864 -0.3713813,0 -0.5684408,-0.21032 -0.1951646,-0.21222 -0.1951646,-0.46233 h 0.507807 q 0.00379,0.16674 0.077687,0.22358 0.073897,0.0568 0.1894802,0.0568 0.2160075,0 0.2160075,-0.19517 z"
         style="font-style:normal;font-variant:normal;font-weight:bold;font-stretch:normal;font-size:3.88055563px;font-family:'Roboto Condensed';-inkscape-font-specification:'Roboto Condensed, ';text-align:center;text-anchor:middle;fill:#000005;fill-opacity:1;stroke-width:0.26458332"
         id="path914" />
      <path
         d="m 8.7975779,260.75827 q 0.2349555,0 0.2349555,-0.30316 h 0.5040175 q -0.00189,0.35053 -0.2122179,0.54949 -0.2084283,0.19895 -0.5172811,0.19895 -0.4092773,0 -0.6101264,-0.2539 -0.2008491,-0.2558 -0.2046387,-0.71813 v -0.16485 q 0,-0.46991 0.2008491,-0.7295 0.2008491,-0.25959 0.6120212,-0.25959 0.3296957,0 0.5286499,0.20464 0.2008491,0.20464 0.2027439,0.59876 H 9.0325334 q 0,-0.35812 -0.2387451,-0.35812 -0.1762166,0 -0.2216919,0.14022 -0.04358,0.14021 -0.04358,0.40359 v 0.1478 q 0,0.27095 0.04358,0.40738 0.043581,0.13642 0.2254815,0.13642 z"
         style="font-style:normal;font-variant:normal;font-weight:bold;font-stretch:normal;font-size:3.88055563px;font-family:'Roboto Condensed';-inkscape-font-specification:'Roboto Condensed, ';text-align:center;text-anchor:middle;fill:#000005;fill-opacity:1;stroke-width:0.26458332"
         id="path916" />
      <path
         d="m 10.595746,259.52476 q -0.151585,0 -0.229272,0.13832 v 1.50258 H 9.8302453 v -2.91042 h 0.5362287 v 1.04025 q 0.174322,-0.21791 0.430121,-0.21791 0.253903,0 0.413067,0.18001 0.159163,0.18001 0.159163,0.61581 v 1.29226 h -0.536229 v -1.29605 q 0,-0.19706 -0.06063,-0.27096 -0.05874,-0.0739 -0.176216,-0.0739 z"
         style="font-style:normal;font-variant:normal;font-weight:bold;font-stretch:normal;font-size:3.88055563px;font-family:'Roboto Condensed';-inkscape-font-specification:'Roboto Condensed, ';text-align:center;text-anchor:middle;fill:#000005;fill-opacity:1;stroke-width:0.26458332"
         id="path918" />
      <path
         d="m 12.589078,259.6176 q -0.223587,0 -0.299379,0.19138 v 1.35668 H 11.75347 v -2.05018 h 0.505912 l 0.01516,0.22169 q 0.128846,-0.25959 0.350538,-0.25959 0.08716,0 0.1459,0.0227 l -0.0057,0.53244 q -0.09474,-0.0152 -0.176217,-0.0152 z"
         style="font-style:normal;font-variant:normal;font-weight:bold;font-stretch:normal;font-size:3.88055563px;font-family:'Roboto Condensed';-inkscape-font-specification:'Roboto Condensed, ';text-align:center;text-anchor:middle;fill:#000005;fill-opacity:1;stroke-width:0.26458332"
         id="path920" />
      <path
         d="m 13.041936,258.58494 q 0,-0.12506 0.07958,-0.20464 0.07958,-0.0815 0.214112,-0.0815 0.132637,0 0.212218,0.0815 0.07958,0.0796 0.07958,0.20464 0,0.12316 -0.07958,0.20463 -0.07958,0.0796 -0.212218,0.0796 -0.134531,0 -0.214112,-0.0796 -0.07958,-0.0815 -0.07958,-0.20463 z m 0.562756,0.53054 v 2.05018 h -0.538124 v -2.05018 z"
         style="font-style:normal;font-variant:normal;font-weight:bold;font-stretch:normal;font-size:3.88055563px;font-family:'Roboto Condensed';-inkscape-font-specification:'Roboto Condensed, ';text-align:center;text-anchor:middle;fill:#000005;fill-opacity:1;stroke-width:0.26458332"
         id="path922" />
      <path
         d="m 14.01018,258.58494 q 0,-0.12506 0.07958,-0.20464 0.07958,-0.0815 0.212218,-0.0815 0.134531,0 0.214113,0.0815 0.07958,0.0796 0.07958,0.20464 0,0.12316 -0.07958,0.20463 -0.07958,0.0796 -0.214113,0.0796 -0.132636,0 -0.212218,-0.0796 -0.07958,-0.0815 -0.07958,-0.20463 z m 0.036,0.53054 h 0.538124 v 2.16197 q 0,0.34675 -0.162953,0.53054 -0.161058,0.18569 -0.452858,0.18569 -0.128846,0 -0.246324,-0.0322 v -0.4358 q 0.08527,0.0152 0.144005,0.0152 0.180006,0 0.180006,-0.26338 z"
         style="font-style:normal;font-variant:normal;font-weight:bold;font-stretch:normal;font-size:3.88055563px;font-family:'Roboto Condensed';-inkscape-font-specification:'Roboto Condensed, ';text-align:center;text-anchor:middle;fill:#000005;fill-opacity:1;stroke-width:0.26458332"
         id="path924" />
      <path
         d="M 15.956142,259.51907 H 15.63592 v 1.64659 h -0.536229 v -1.64659 h -0.248219 v -0.40359 h 0.248219 v -0.18569 q 0.0019,-0.34675 0.180006,-0.53055 0.180007,-0.18379 0.486965,-0.18379 0.115583,0 0.242534,0.0379 l -0.0038,0.42634 q -0.05495,-0.0152 -0.130742,-0.0152 -0.23685,0 -0.238745,0.26906 v 0.1819 h 0.320222 z"
         style="font-style:normal;font-variant:normal;font-weight:bold;font-stretch:normal;font-size:3.88055563px;font-family:'Roboto Condensed';-inkscape-font-specification:'Roboto Condensed, ';text-align:center;text-anchor:middle;fill:#000005;fill-opacity:1;stroke-width:0.26458332"
         id="path926" />
      <path
         d="m 17.000179,259.52476 q -0.151585,0 -0.229272,0.13832 v 1.50258 h -0.536229 v -2.91042 h 0.536229 v 1.04025 q 0.174322,-0.21791 0.430121,-0.21791 0.253903,0 0.413067,0.18001 0.159163,0.18001 0.159163,0.61581 v 1.29226 h -0.536229 v -1.29605 q 0,-0.19706 -0.06063,-0.27096 -0.05874,-0.0739 -0.176216,-0.0739 z"
         style="font-style:normal;font-variant:normal;font-weight:bold;font-stretch:normal;font-size:3.88055563px;font-family:'Roboto Condensed';-inkscape-font-specification:'Roboto Condensed, ';text-align:center;text-anchor:middle;fill:#000005;fill-opacity:1;stroke-width:0.26458332"
         id="path928" />
      <path
         d="m 19.181096,261.16566 -0.01326,-0.18948 q -0.166742,0.22737 -0.449068,0.22737 -0.253903,0 -0.413067,-0.17811 -0.159163,-0.17811 -0.159163,-0.5836 v -1.32636 h 0.536229 v 1.32636 q 0,0.31264 0.197059,0.31264 0.185691,0 0.267168,-0.15916 v -1.47984 h 0.538124 v 2.05018 z"
         style="font-style:normal;font-variant:normal;font-weight:bold;font-stretch:normal;font-size:3.88055563px;font-family:'Roboto Condensed';-inkscape-font-specification:'Roboto Condensed, ';text-align:center;text-anchor:middle;fill:#000005;fill-opacity:1;stroke-width:0.26458332"
         id="path930" />
      <path
         d="m 20.63062,258.25524 v 2.91042 h -0.538124 v -2.91042 z"
         style="font-style:normal;font-variant:normal;font-weight:bold;font-stretch:normal;font-size:3.88055563px;font-family:'Roboto Condensed';-inkscape-font-specification:'Roboto Condensed, ';text-align:center;text-anchor:middle;fill:#000005;fill-opacity:1;stroke-width:0.26458332"
         id="path932" />
      <path
         d="m 21.985404,261.20355 q -0.248219,0 -0.403593,-0.20464 v 0.95498 h -0.534334 v -2.83841 h 0.494543 l 0.01895,0.18759 q 0.157269,-0.22549 0.420646,-0.22549 0.327801,0 0.492649,0.24254 0.166743,0.24253 0.170532,0.7295 v 0.15537 q 0,0.48128 -0.166742,0.74087 -0.164848,0.25769 -0.492649,0.25769 z m -0.162953,-1.67879 q -0.166743,0 -0.24064,0.14211 v 0.95498 q 0.0739,0.13642 0.244429,0.13642 0.159164,0 0.219798,-0.13453 0.06253,-0.13453 0.06253,-0.41875 v -0.13453 q 0,-0.2918 -0.06442,-0.41875 -0.06442,-0.12695 -0.221692,-0.12695 z"
         style="font-style:normal;font-variant:normal;font-weight:bold;font-stretch:normal;font-size:3.88055563px;font-family:'Roboto Condensed';-inkscape-font-specification:'Roboto Condensed, ';text-align:center;text-anchor:middle;fill:#000005;fill-opacity:1;stroke-width:0.26458332"
         id="path934" />
      <path
         d="m 24.569914,260.20689 q 0,0.49833 -0.164848,0.74844 -0.164848,0.24822 -0.494544,0.24822 -0.269062,0 -0.42633,-0.24064 l -0.01705,0.20275 h -0.494544 v -2.91042 h 0.534334 v 1.02698 q 0.153479,-0.20464 0.399804,-0.20464 0.344854,0 0.502122,0.25012 0.159164,0.24822 0.161059,0.73139 z m -0.81666,-0.68213 q -0.170533,0 -0.246325,0.15348 v 0.93413 q 0.0739,0.14401 0.250114,0.14401 0.176217,0 0.227377,-0.12506 0.05116,-0.12506 0.05116,-0.42443 v -0.13453 q 0,-0.27854 -0.05305,-0.41307 -0.05116,-0.13453 -0.229271,-0.13453 z"
         style="font-style:normal;font-variant:normal;font-weight:bold;font-stretch:normal;font-size:3.88055563px;font-family:'Roboto Condensed';-inkscape-font-specification:'Roboto Condensed, ';text-align:center;text-anchor:middle;fill:#000005;fill-opacity:1;stroke-width:0.26458332"
         id="path936" />
      <path
         d="m 26.419241,260.89659 q -0.08148,0.1099 -0.257693,0.20843 -0.174322,0.0985 -0.4377,0.0985 -0.418751,0 -0.648022,-0.25011 -0.227376,-0.25012 -0.227376,-0.69539 v -0.16864 q 0,-0.49833 0.216007,-0.75413 0.217902,-0.2577 0.604442,-0.2577 0.38654,0 0.581704,0.24443 0.195165,0.24443 0.198955,0.73329 v 0.26338 h -1.062984 q 0.0095,0.24443 0.104214,0.34296 0.09664,0.0966 0.269062,0.0966 0.270956,0 0.447173,-0.18569 z m -0.752237,-1.37373 q -0.140215,0 -0.204638,0.10043 -0.06253,0.0985 -0.0739,0.32022 h 0.536229 v -0.0474 q -0.0038,-0.18569 -0.06063,-0.27854 -0.05684,-0.0947 -0.19706,-0.0947 z"
         style="font-style:normal;font-variant:normal;font-weight:bold;font-stretch:normal;font-size:3.88055563px;font-family:'Roboto Condensed';-inkscape-font-specification:'Roboto Condensed, ';text-align:center;text-anchor:middle;fill:#000005;fill-opacity:1;stroke-width:0.26458332"
         id="path938" />
      <path
         d="m 27.660337,260.61616 q 0,-0.0796 -0.08148,-0.14021 -0.08148,-0.0606 -0.272851,-0.14401 -0.280431,-0.1099 -0.432015,-0.25011 -0.149689,-0.14022 -0.149689,-0.38654 0,-0.2558 0.187585,-0.43581 0.187585,-0.1819 0.521071,-0.1819 0.344854,0 0.543808,0.17812 0.198954,0.17621 0.198954,0.46422 h -0.536229 q 0,-0.25201 -0.208428,-0.25201 -0.19327,0 -0.19327,0.20085 0,0.0796 0.0739,0.13453 0.07579,0.055 0.272852,0.13643 0.306958,0.11558 0.450963,0.25769 0.1459,0.14211 0.1459,0.39602 0,0.27285 -0.202744,0.44148 -0.202744,0.16864 -0.545703,0.16864 -0.371382,0 -0.568441,-0.21032 -0.195165,-0.21222 -0.195165,-0.46233 h 0.507807 q 0.0038,0.16674 0.07769,0.22358 0.0739,0.0568 0.18948,0.0568 0.216008,0 0.216008,-0.19517 z"
         style="font-style:normal;font-variant:normal;font-weight:bold;font-stretch:normal;font-size:3.88055563px;font-family:'Roboto Condensed';-inkscape-font-specification:'Roboto Condensed, ';text-align:center;text-anchor:middle;fill:#000005;fill-opacity:1;stroke-width:0.26458332"
         id="path940" />
      <path
         d="m 29.428189,261.15239 q -0.130742,0.0512 -0.297484,0.0512 -0.238745,0 -0.380856,-0.14021 -0.14211,-0.14022 -0.14211,-0.46802 v -1.07625 h -0.238745 v -0.40359 h 0.238745 v -0.50591 h 0.534334 v 0.50591 h 0.274747 v 0.40359 h -0.274747 v 1.01751 q 0,0.12885 0.036,0.17053 0.0379,0.0417 0.125057,0.0417 0.0739,0 0.126951,-0.0152 z"
         style="font-style:normal;font-variant:normal;font-weight:bold;font-stretch:normal;font-size:3.88055563px;font-family:'Roboto Condensed';-inkscape-font-specification:'Roboto Condensed, ';text-align:center;text-anchor:middle;fill:#000005;fill-opacity:1;stroke-width:0.26458332"
         id="path942" />
      <path
         d="m 30.682548,261.16566 q -0.02842,-0.0644 -0.04548,-0.15917 -0.145899,0.19706 -0.390329,0.19706 -0.248219,0 -0.422541,-0.16674 -0.172427,-0.16674 -0.172427,-0.44528 0,-0.31264 0.200849,-0.49454 0.200849,-0.1838 0.613916,-0.1838 h 0.144005 v -0.16485 q 0,-0.252 -0.185691,-0.252 -0.200849,0 -0.200849,0.23495 h -0.536229 q 0,-0.26906 0.202744,-0.46044 0.204639,-0.19327 0.549493,-0.19327 0.305063,0 0.505912,0.15917 0.202744,0.15916 0.202744,0.51917 v 0.96256 q 0.0038,0.27285 0.0739,0.41496 v 0.0322 z m -0.314538,-0.38465 q 0.08716,0 0.14969,-0.036 0.06253,-0.036 0.09284,-0.0853 v -0.42633 h -0.126952 q -0.151584,0 -0.223586,0.0928 -0.072,0.0928 -0.072,0.22737 0,0.22738 0.180006,0.22738 z"
         style="font-style:normal;font-variant:normal;font-weight:bold;font-stretch:normal;font-size:3.88055563px;font-family:'Roboto Condensed';-inkscape-font-specification:'Roboto Condensed, ';text-align:center;text-anchor:middle;fill:#000005;fill-opacity:1;stroke-width:0.26458332"
         id="path944" />
      <path
         d="m 32.287445,259.52476 q -0.145899,0 -0.227376,0.15158 v 1.48932 H 31.52384 v -2.05018 h 0.502123 l 0.01516,0.20085 q 0.183796,-0.23875 0.47749,-0.23875 0.24064,0 0.39033,0.17433 0.151584,0.17432 0.151584,0.61012 v 1.30363 h -0.536229 v -1.30742 q 0,-0.19516 -0.06063,-0.26338 -0.05874,-0.0701 -0.176217,-0.0701 z"
         style="font-style:normal;font-variant:normal;font-weight:bold;font-stretch:normal;font-size:3.88055563px;font-family:'Roboto Condensed';-inkscape-font-specification:'Roboto Condensed, ';text-align:center;text-anchor:middle;fill:#000005;fill-opacity:1;stroke-width:0.26458332"
         id="path946" />
      <path
         d="m 34.489207,261.16755 -0.02463,-0.21222 q -0.162953,0.24822 -0.42633,0.24822 -0.320222,0 -0.490754,-0.25201 -0.170532,-0.25201 -0.172427,-0.7276 v -0.1459 q 0,-0.49833 0.164848,-0.74845 0.166742,-0.25201 0.500227,-0.25201 0.24064,0 0.396014,0.20464 v -1.02698 h 0.538124 v 2.91042 z m -0.577915,-0.95498 q 0,0.28233 0.05874,0.41307 0.06063,0.12884 0.223586,0.12884 0.164848,0 0.242535,-0.144 v -0.93224 q -0.07958,-0.15348 -0.24064,-0.15348 -0.159163,0 -0.221692,0.13074 -0.06253,0.13074 -0.06253,0.42254 z"
         style="font-style:normal;font-variant:normal;font-weight:bold;font-stretch:normal;font-size:3.88055563px;font-family:'Roboto Condensed';-inkscape-font-specification:'Roboto Condensed, ';text-align:center;text-anchor:middle;fill:#000005;fill-opacity:1;stroke-width:0.26458332"
         id="path948" />
      <path
         d="m 36.893711,260.89659 q -0.08148,0.1099 -0.257693,0.20843 -0.174322,0.0985 -0.437699,0.0985 -0.418752,0 -0.648023,-0.25011 -0.227376,-0.25012 -0.227376,-0.69539 v -0.16864 q 0,-0.49833 0.216007,-0.75413 0.217903,-0.2577 0.604442,-0.2577 0.38654,0 0.581705,0.24443 0.195164,0.24443 0.198954,0.73329 v 0.26338 h -1.062984 q 0.0095,0.24443 0.104214,0.34296 0.09663,0.0966 0.269062,0.0966 0.270957,0 0.447173,-0.18569 z m -0.752237,-1.37373 q -0.140215,0 -0.204638,0.10043 -0.06253,0.0985 -0.0739,0.32022 h 0.53623 v -0.0474 q -0.0038,-0.18569 -0.06063,-0.27854 -0.05684,-0.0947 -0.19706,-0.0947 z"
         style="font-style:normal;font-variant:normal;font-weight:bold;font-stretch:normal;font-size:3.88055563px;font-family:'Roboto Condensed';-inkscape-font-specification:'Roboto Condensed, ';text-align:center;text-anchor:middle;fill:#000005;fill-opacity:1;stroke-width:0.26458332"
         id="path950" />
      <path
         d="m 37.979431,259.52476 q -0.145899,0 -0.227376,0.15158 v 1.48932 h -0.536229 v -2.05018 h 0.502123 l 0.01516,0.20085 q 0.183796,-0.23875 0.47749,-0.23875 0.24064,0 0.39033,0.17433 0.151584,0.17432 0.151584,0.61012 v 1.30363 h -0.536229 v -1.30742 q 0,-0.19516 -0.06063,-0.26338 -0.05874,-0.0701 -0.176217,-0.0701 z"
         style="font-style:normal;font-variant:normal;font-weight:bold;font-stretch:normal;font-size:3.88055563px;font-family:'Roboto Condensed';-inkscape-font-specification:'Roboto Condensed, ';text-align:center;text-anchor:middle;fill:#000005;fill-opacity:1;stroke-width:0.26458332"
         id="path952" />
    </g>
    <g
       id="g955"
       transform="matrix(0.07559055,0,0,0.07559055,3.2790006,260.99532)">
      <path
         sodipodi:nodetypes="cccccccssssscc"
         inkscape:connector-curvature="0"
         d="m 135.5294,259.65461 6.2627,-5.49308 m -11.61026,-58.00244 c 40.26102,6.30527 13.22968,52.85567 5.34756,63.49552 45.79961,-21.34482 54.55788,-55.42881 83.46463,-53.63003 m -0.75442,-0.039 c 18.39151,0.55205 15.70902,0.81575 35.76039,0.84688 63.50553,1e-5 124.41007,-7.80518 169.31526,-21.6985 44.90519,-13.89332 70.13265,-32.73638 70.13265,-52.38451 0,-19.64812 -25.22746,-38.491827 -70.13265,-52.385148 C 378.41007,66.470963 317.50553,58.665776 254,58.665779 190.49446,58.665776 129.58994,66.470963 84.684745,80.364282 39.779549,94.257603 14.552078,113.10099 14.552089,132.74911 c 0.315306,23.83877 37.141396,48.60598 115.629751,63.40998"
         style="fill:url(#linearGradient916);fill-opacity:1;stroke:#060000;stroke-width:10.58333302;stroke-linecap:round;stroke-linejoin:miter;stroke-miterlimit:4;stroke-dasharray:none;stroke-opacity:1"
         id="path101522-5" />
      <g
         aria-label="OpenTaal"
         style="font-style:normal;font-weight:normal;font-size:10.58333302px;line-height:1.25;font-family:sans-serif;letter-spacing:2.64583325px;word-spacing:0px;fill:#000000;fill-opacity:1;stroke:none;stroke-width:0.26458332"
         id="text101475">
        <path
           d="m 67.469701,114.01046 q -6.669705,0 -10.345622,4.92649 -3.675917,4.92648 -3.675917,13.86995 0,8.90557 3.675917,13.83206 3.675917,4.92649 10.345622,4.92649 6.707601,0 10.383518,-4.92649 3.675917,-4.92649 3.675917,-13.83206 0,-8.94347 -3.675917,-13.86995 -3.675917,-4.92649 -10.383518,-4.92649 z m 0,-10.573 q 13.642579,0 21.373373,7.80659 7.730795,7.80658 7.730795,21.56285 0,13.71837 -7.730795,21.52496 -7.730794,7.80658 -21.373373,7.80658 -13.604683,0 -21.373373,-7.80658 -7.730795,-7.80659 -7.730795,-21.52496 0,-13.75627 7.730795,-21.56285 7.76869,-7.80659 21.373373,-7.80659 z"
           style="font-weight:bold;font-size:77.6111145px;text-align:center;letter-spacing:0.26458332px;word-spacing:0px;text-anchor:middle;stroke-width:0.26458332"
           id="path955" />
        <path
           d="m 120.78876,154.9003 v 22.28288 h -13.56679 v -58.5873 h 13.56679 v 6.21495 q 2.8043,-3.71381 6.21495,-5.45703 3.41064,-1.78111 7.84448,-1.78111 7.84448,0 12.88466,6.25285 5.04017,6.21495 5.04017,16.03003 0,9.81507 -5.04017,16.06792 -5.04018,6.21495 -12.88466,6.21495 -4.43384,0 -7.84448,-1.74321 -3.41065,-1.78112 -6.21495,-5.49493 z m 9.01926,-27.47464 q -4.35805,0 -6.70761,3.22117 -2.31165,3.18326 -2.31165,9.20874 0,6.02547 2.31165,9.24663 2.34956,3.18327 6.70761,3.18327 4.35804,0 6.63181,-3.18327 2.31165,-3.18327 2.31165,-9.24663 0,-6.06337 -2.31165,-9.24664 -2.27377,-3.18327 -6.63181,-3.18327 z"
           style="font-weight:bold;font-size:77.6111145px;text-align:center;letter-spacing:0.26458332px;word-spacing:0px;text-anchor:middle;stroke-width:0.26458332"
           id="path957" />
        <path
           d="m 205.48574,139.70398 v 3.8654 h -31.71899 q 0.49265,4.7749 3.44854,7.16235 2.95589,2.38745 8.26134,2.38745 4.28225,0 8.75399,-1.25057 4.50963,-1.28846 9.24663,-3.86539 v 10.45931 q -4.8128,1.81901 -9.62559,2.72851 -4.8128,0.9474 -9.6256,0.9474 -11.5204,0 -17.92483,-5.83599 -6.36654,-5.87389 -6.36654,-16.44688 0,-10.38352 6.25285,-16.3332 6.29074,-5.94968 17.2806,-5.94968 10.00456,0 15.99213,6.02547 6.02547,6.02547 6.02547,16.10582 z M 191.54,135.19435 q 0,-3.8654 -2.27377,-6.21495 -2.23586,-2.38745 -5.87388,-2.38745 -3.94119,0 -6.40444,2.23587 -2.46324,2.19797 -3.06958,6.36653 z"
           style="font-weight:bold;font-size:77.6111145px;text-align:center;letter-spacing:0.26458332px;word-spacing:0px;text-anchor:middle;stroke-width:0.26458332"
           id="path959" />
        <path
           d="m 258.65322,135.19435 v 25.84511 H 245.01064 V 156.833 141.25772 q 0,-5.49493 -0.26528,-7.57921 -0.22737,-2.08428 -0.83371,-3.06958 -0.79582,-1.32636 -2.16007,-2.04639 -1.36426,-0.75792 -3.10748,-0.75792 -4.24436,0 -6.6697,3.29696 -2.42535,3.25906 -2.42535,9.05715 v 20.88073 h -13.56679 v -42.44358 h 13.56679 v 6.21495 q 3.06958,-3.71381 6.51812,-5.45703 3.44854,-1.78111 7.61711,-1.78111 7.35183,0 11.14143,4.50963 3.82751,4.50963 3.82751,13.11203 z"
           style="font-weight:bold;font-size:77.6111145px;text-align:center;letter-spacing:0.26458332px;word-spacing:0px;text-anchor:middle;stroke-width:0.26458332"
           id="path961" />
        <path
           d="m 265.43592,104.46065 h 52.14497 v 11.02775 h -18.75855 v 45.55106 H 284.23236 V 115.4884 h -18.79644 z"
           style="font-weight:bold;font-size:77.6111145px;text-align:center;letter-spacing:0.26458332px;word-spacing:0px;text-anchor:middle;stroke-width:0.26458332"
           id="path963" />
        <path
           d="m 344.26638,141.93985 q -4.24436,0 -6.40443,1.44005 -2.12218,1.44005 -2.12218,4.24436 0,2.57693 1.70532,4.05487 1.74322,1.44005 4.8128,1.44005 3.8275,0 6.44233,-2.72851 2.61482,-2.76641 2.61482,-6.89708 v -1.55374 z m 20.72914,-5.11597 v 24.21558 h -13.68048 v -6.29075 q -2.72851,3.8654 -6.13916,5.64652 -3.41064,1.74321 -8.29923,1.74321 -6.59391,0 -10.72458,-3.8275 -4.09278,-3.86539 -4.09278,-10.00455 0,-7.46553 5.11597,-10.95196 5.15386,-3.48644 16.14372,-3.48644 h 7.99606 v -1.06109 q 0,-3.22116 -2.53903,-4.69911 -2.53904,-1.51584 -7.92028,-1.51584 -4.35804,0 -8.10975,0.87161 -3.75171,0.87161 -6.97287,2.61482 v -10.34562 q 4.35804,-1.06109 8.75398,-1.59163 4.39595,-0.56844 8.79189,-0.56844 11.4825,0 16.56057,4.54752 5.11597,4.50963 5.11597,14.70367 z"
           style="font-weight:bold;font-size:77.6111145px;text-align:center;letter-spacing:0.26458332px;word-spacing:0px;text-anchor:middle;stroke-width:0.26458332"
           id="path965" />
        <path
           d="m 396.97909,141.93985 q -4.24436,0 -6.40444,1.44005 -2.12218,1.44005 -2.12218,4.24436 0,2.57693 1.70533,4.05487 1.74322,1.44005 4.8128,1.44005 3.8275,0 6.44232,-2.72851 2.61483,-2.76641 2.61483,-6.89708 v -1.55374 z m 20.72914,-5.11597 v 24.21558 h -13.68048 v -6.29075 q -2.72851,3.8654 -6.13916,5.64652 -3.41064,1.74321 -8.29923,1.74321 -6.59392,0 -10.72459,-3.8275 -4.09277,-3.86539 -4.09277,-10.00455 0,-7.46553 5.11597,-10.95196 5.15386,-3.48644 16.14372,-3.48644 h 7.99606 v -1.06109 q 0,-3.22116 -2.53903,-4.69911 -2.53904,-1.51584 -7.92028,-1.51584 -4.35804,0 -8.10975,0.87161 -3.75171,0.87161 -6.97288,2.61482 v -10.34562 q 4.35805,-1.06109 8.75399,-1.59163 4.39594,-0.56844 8.79189,-0.56844 11.4825,0 16.56057,4.54752 5.11597,4.50963 5.11597,14.70367 z"
           style="font-weight:bold;font-size:77.6111145px;text-align:center;letter-spacing:0.26458332px;word-spacing:0px;text-anchor:middle;stroke-width:0.26458332"
           id="path967" />
        <path
           d="m 430.66801,102.0732 h 13.56678 v 58.96626 h -13.56678 z"
           style="font-weight:bold;font-size:77.6111145px;text-align:center;letter-spacing:0.26458332px;word-spacing:0px;text-anchor:middle;stroke-width:0.26458332"
           id="path969" />
      </g>
    </g>
  </g>
</svg>
